<?xml version="1.0" encoding="UTF-8" standalone="no"?>
<!DOCTYPE svg PUBLIC "-//W3C//DTD SVG 1.1//EN" "http://www.w3.org/Graphics/SVG/1.1/DTD/svg11.dtd">
<svg xmlns="http://www.w3.org/2000/svg" version="1.1" viewBox="0.00 0.00 1114.00 935.00">
<g stroke-width="2.00" fill="none" stroke-linecap="butt">
<path stroke="#80755e" stroke-opacity="0.996" vector-effect="non-scaling-stroke" d="
  M 59.29 602.72
  Q 31.73 603.50 4.25 603.10
  Q 3.43 603.09 2.33 603.67"
/>
<path stroke="#80755e" stroke-opacity="0.996" vector-effect="non-scaling-stroke" d="
  M 76.92 864.91
  Q 78.31 866.17 80.27 866.56"
/>
<path stroke="#80755e" stroke-opacity="0.996" vector-effect="non-scaling-stroke" d="
  M 80.27 866.56
  Q 80.44 867.17 81.48 867.01"
/>
<path stroke="#80755e" stroke-opacity="0.996" vector-effect="non-scaling-stroke" d="
  M 81.69 867.12
  Q 81.60 867.71 82.53 867.49"
/>
<path stroke="#80755e" stroke-opacity="0.996" vector-effect="non-scaling-stroke" d="
  M 89.04 869.58
  L 89.71 869.68"
/>
<path stroke="#80755e" stroke-opacity="0.996" vector-effect="non-scaling-stroke" d="
  M 97.03 870.63
  L 98.71 870.74"
/>
<path stroke="#80755e" stroke-opacity="0.996" vector-effect="non-scaling-stroke" d="
  M 210.30 870.83
  Q 213.24 871.11 215.94 870.36"
/>
<path stroke="#80755e" stroke-opacity="0.996" vector-effect="non-scaling-stroke" d="
  M 219.73 873.31
  Q 219.01 896.13 219.45 918.63
  Q 219.50 921.02 218.55 923.55"
/>
<path stroke="#80755e" stroke-opacity="0.996" vector-effect="non-scaling-stroke" d="
  M 217.96 923.86
  L 200.78 924.27"
/>
<path stroke="#80755e" stroke-opacity="0.996" vector-effect="non-scaling-stroke" d="
  M 1.36 614.41
  L 1.60 606.01"
/>
<path stroke="#80755e" stroke-opacity="0.996" vector-effect="non-scaling-stroke" d="
  M 619.05 681.31
  Q 619.31 681.47 619.70 681.51"
/>
<path stroke="#80755e" stroke-opacity="0.996" vector-effect="non-scaling-stroke" d="
  M 619.70 681.51
  Q 620.58 681.97 621.47 682.03"
/>
<path stroke="#80755e" stroke-opacity="0.996" vector-effect="non-scaling-stroke" d="
  M 626.24 683.54
  Q 627.65 684.30 629.23 684.54"
/>
<path stroke="#80755e" stroke-opacity="0.996" vector-effect="non-scaling-stroke" d="
  M 629.75 684.80
  Q 630.16 685.17 630.72 685.30"
/>
<path stroke="#80755e" stroke-opacity="0.996" vector-effect="non-scaling-stroke" d="
  M 630.72 685.30
  L 641.27 690.25"
/>
<path stroke="#80755e" stroke-opacity="0.996" vector-effect="non-scaling-stroke" d="
  M 641.27 690.25
  Q 641.33 690.89 642.02 690.79"
/>
<path stroke="#80755e" stroke-opacity="0.996" vector-effect="non-scaling-stroke" d="
  M 642.46 691.07
  Q 642.79 691.41 643.25 691.52"
/>
<path stroke="#80755e" stroke-opacity="0.996" vector-effect="non-scaling-stroke" d="
  M 657.76 702.97
  L 660.38 706.06
  A 0.57 0.56 46.0 0 0 661.23 706.08
  L 664.34 702.72"
/>
<path stroke="#80755e" stroke-opacity="0.996" vector-effect="non-scaling-stroke" d="
  M 735.30 678.35
  L 735.96 678.39"
/>
<path stroke="#80755e" stroke-opacity="0.996" vector-effect="non-scaling-stroke" d="
  M 738.27 678.58
  L 739.96 678.70"
/>
<path stroke="#80755e" stroke-opacity="0.996" vector-effect="non-scaling-stroke" d="
  M 740.71 678.85
  Q 741.39 679.02 742.05 678.95"
/>
<path stroke="#80755e" stroke-opacity="0.996" vector-effect="non-scaling-stroke" d="
  M 742.05 678.95
  Q 744.82 679.93 747.73 679.98"
/>
<path stroke="#80755e" stroke-opacity="0.996" vector-effect="non-scaling-stroke" d="
  M 747.73 679.98
  L 757.46 682.32"
/>
<path stroke="#80755e" stroke-opacity="0.996" vector-effect="non-scaling-stroke" d="
  M 757.72 682.33
  L 758.45 682.50"
/>
<path stroke="#80755e" stroke-opacity="0.996" vector-effect="non-scaling-stroke" d="
  M 769.69 686.88
  Q 770.50 687.90 771.55 687.71"
/>
<path stroke="#80755e" stroke-opacity="0.996" vector-effect="non-scaling-stroke" d="
  M 773.21 688.60
  Q 773.64 689.14 774.44 689.26"
/>
<path stroke="#80755e" stroke-opacity="0.996" vector-effect="non-scaling-stroke" d="
  M 774.44 689.26
  Q 774.93 689.97 775.77 689.98"
/>
<path stroke="#80755e" stroke-opacity="0.996" vector-effect="non-scaling-stroke" d="
  M 776.46 690.37
  Q 776.55 690.66 776.95 690.72"
/>
<path stroke="#80755e" stroke-opacity="0.996" vector-effect="non-scaling-stroke" d="
  M 772.26 924.21
  L 766.75 924.16"
/>
<path stroke="#80755e" stroke-opacity="0.996" vector-effect="non-scaling-stroke" d="
  M 685.37 762.55
  L 685.30 763.46"
/>
<path stroke="#80755e" stroke-opacity="0.996" vector-effect="non-scaling-stroke" d="
  M 684.41 768.21
  Q 684.39 768.64 684.24 768.98"
/>
<path stroke="#80755e" stroke-opacity="0.996" vector-effect="non-scaling-stroke" d="
  M 548.39 910.54
  L 548.42 912.96"
/>
<path stroke="#80755e" stroke-opacity="0.996" vector-effect="non-scaling-stroke" d="
  M 492.60 812.54
  L 492.62 810.46"
/>
<path stroke="#80755e" stroke-opacity="0.996" vector-effect="non-scaling-stroke" d="
  M 492.61 804.27
  L 492.61 796.47"
/>
<path stroke="#80755e" stroke-opacity="0.996" vector-effect="non-scaling-stroke" d="
  M 268.56 682.82
  Q 267.00 683.25 265.99 683.24
  Q 245.79 683.04 225.59 683.14"
/>
<path stroke="#80755e" stroke-opacity="0.996" vector-effect="non-scaling-stroke" d="
  M 281.26 815.53
  L 281.48 817.50"
/>
<path stroke="#80755e" stroke-opacity="0.996" vector-effect="non-scaling-stroke" d="
  M 281.48 817.50
  L 281.66 818.29"
/>
<path stroke="#80755e" stroke-opacity="0.996" vector-effect="non-scaling-stroke" d="
  M 282.31 823.04
  Q 282.23 823.90 282.54 824.20"
/>
<path stroke="#80755e" stroke-opacity="0.996" vector-effect="non-scaling-stroke" d="
  M 292.05 847.88
  Q 291.87 848.76 292.49 848.77"
/>
<path stroke="#80755e" stroke-opacity="0.996" vector-effect="non-scaling-stroke" d="
  M 292.49 848.77
  Q 292.61 849.22 292.98 849.49"
/>
<path stroke="#80755e" stroke-opacity="0.996" vector-effect="non-scaling-stroke" d="
  M 309.00 864.78
  Q 309.24 865.12 309.72 865.26"
/>
<path stroke="#80755e" stroke-opacity="0.996" vector-effect="non-scaling-stroke" d="
  M 309.72 865.26
  Q 310.02 865.61 310.50 865.75"
/>
<path stroke="#80755e" stroke-opacity="0.996" vector-effect="non-scaling-stroke" d="
  M 310.50 865.75
  Q 310.80 866.11 311.23 866.22"
/>
<path stroke="#80755e" stroke-opacity="0.996" vector-effect="non-scaling-stroke" d="
  M 320.29 870.80
  L 320.94 871.02"
/>
<path stroke="#80755e" stroke-opacity="0.996" vector-effect="non-scaling-stroke" d="
  M 320.94 871.02
  Q 322.32 871.79 323.96 871.96"
/>
<path stroke="#80755e" stroke-opacity="0.996" vector-effect="non-scaling-stroke" d="
  M 324.22 872.07
  L 324.96 872.20"
/>
<path stroke="#80755e" stroke-opacity="0.996" vector-effect="non-scaling-stroke" d="
  M 326.21 872.57
  L 326.96 872.70"
/>
<path stroke="#80755e" stroke-opacity="0.996" vector-effect="non-scaling-stroke" d="
  M 330.46 873.56
  Q 331.21 874.04 332.22 873.97"
/>
<path stroke="#80755e" stroke-opacity="0.996" vector-effect="non-scaling-stroke" d="
  M 335.79 874.57
  L 336.46 874.71"
/>
<path stroke="#80755e" stroke-opacity="0.996" vector-effect="non-scaling-stroke" d="
  M 343.98 875.59
  L 350.75 875.64"
/>
<path stroke="#80755e" stroke-opacity="0.996" vector-effect="non-scaling-stroke" d="
  M 352.70 875.50
  Q 353.29 875.57 353.80 875.34"
/>
<path stroke="#80755e" stroke-opacity="0.996" vector-effect="non-scaling-stroke" d="
  M 356.02 875.27
  Q 356.88 875.47 357.54 875.05"
/>
<path stroke="#80755e" stroke-opacity="0.996" vector-effect="non-scaling-stroke" d="
  M 358.21 875.02
  Q 358.92 875.12 359.54 874.80"
/>
<path stroke="#80755e" stroke-opacity="0.996" vector-effect="non-scaling-stroke" d="
  M 359.79 874.70
  Q 360.40 874.75 360.72 874.56"
/>
<path stroke="#80755e" stroke-opacity="0.996" vector-effect="non-scaling-stroke" d="
  M 414.15 689.73
  L 414.11 688.21"
/>
<path stroke="#80755e" stroke-opacity="0.996" vector-effect="non-scaling-stroke" d="
  M 414.10 687.96
  L 414.15 686.75"
/>
<path stroke="#80755e" stroke-opacity="0.996" vector-effect="non-scaling-stroke" d="
  M 471.83 684.97
  L 471.83 812.25"
/>
<path stroke="#80755e" stroke-opacity="0.996" vector-effect="non-scaling-stroke" d="
  M 471.93 813.48
  L 471.82 816.97"
/>
<path stroke="#80755e" stroke-opacity="0.996" vector-effect="non-scaling-stroke" d="
  M 471.66 818.79
  L 471.55 819.47"
/>
<path stroke="#80755e" stroke-opacity="0.996" vector-effect="non-scaling-stroke" d="
  M 223.82 809.70
  L 223.85 806.04"
/>
<path stroke="#80755e" stroke-opacity="0.996" vector-effect="non-scaling-stroke" d="
  M 223.85 803.46
  L 223.84 800.00"
/>
<path stroke="#80755e" stroke-opacity="0.996" vector-effect="non-scaling-stroke" d="
  M 223.85 791.50
  L 223.84 790.00"
/>
<path stroke="#80755e" stroke-opacity="0.996" vector-effect="non-scaling-stroke" d="
  M 223.86 787.75
  L 223.86 756.76"
/>
<path stroke="#80755e" stroke-opacity="0.996" vector-effect="non-scaling-stroke" d="
  M 223.85 723.63
  L 223.94 685.33"
/>
<path stroke="#80755e" stroke-opacity="0.996" vector-effect="non-scaling-stroke" d="
  M 277.30 682.75
  L 270.02 682.76"
/>
<path stroke="#80755e" stroke-opacity="0.996" vector-effect="non-scaling-stroke" d="
  M 469.67 682.77
  Q 444.17 683.92 418.53 682.74"
/>
<path stroke="#80755e" stroke-opacity="0.996" vector-effect="non-scaling-stroke" d="
  M 983.95 0.22
  Q 984.26 3.41 984.26 6.50
  Q 984.39 239.88 984.41 473.25
  Q 984.41 478.58 985.00 483.80"
/>
<path stroke="#80755e" stroke-opacity="0.996" vector-effect="non-scaling-stroke" d="
  M 984.68 492.23
  Q 983.87 509.92 984.68 527.66"
/>
<path stroke="#80755e" stroke-opacity="0.996" vector-effect="non-scaling-stroke" d="
  M 984.80 551.33
  L 984.78 561.68"
/>
<path stroke="#80755e" stroke-opacity="0.996" vector-effect="non-scaling-stroke" d="
  M 984.39 586.46
  L 984.33 589.33
  A 0.96 0.95 -72.1 0 0 984.73 590.13
  Q 985.26 590.50 986.02 590.52"
/>
<path stroke="#80755e" stroke-opacity="0.996" vector-effect="non-scaling-stroke" d="
  M 994.69 592.44
  Q 994.95 592.91 995.46 593.01"
/>
<path stroke="#80755e" stroke-opacity="0.996" vector-effect="non-scaling-stroke" d="
  M 995.46 593.01
  Q 995.79 593.71 996.48 593.79"
/>
<path stroke="#80755e" stroke-opacity="0.996" vector-effect="non-scaling-stroke" d="
  M 996.99 594.11
  Q 996.77 594.69 997.63 594.71"
/>
<path stroke="#80755e" stroke-opacity="0.996" vector-effect="non-scaling-stroke" d="
  M 1002.90 637.54
  L 1002.81 657.97
  A 1.17 1.16 -84.6 0 1 1001.44 659.11
  Q 993.86 657.76 986.19 656.85
  Q 979.88 656.10 970.80 656.69
  Q 962.54 657.23 954.19 658.01"
/>
<path stroke="#80755e" stroke-opacity="0.996" vector-effect="non-scaling-stroke" d="
  M 969.66 590.21
  Q 970.51 590.38 971.58 590.20
  A 0.62 0.61 -3.5 0 0 972.10 589.62
  L 972.23 586.70"
/>
<path stroke="#80755e" stroke-opacity="0.996" vector-effect="non-scaling-stroke" d="
  M 971.73 526.01
  L 971.66 520.57"
/>
<path stroke="#80755e" stroke-opacity="0.996" vector-effect="non-scaling-stroke" d="
  M 971.83 515.96
  C 972.24 504.61 971.97 490.80 971.97 481.94
  Q 972.08 261.51 972.06 41.07
  Q 972.06 32.20 972.33 20.93
  Q 972.57 10.84 972.70 0.76"
/>
<path stroke="#80755e" stroke-opacity="0.996" vector-effect="non-scaling-stroke" d="
  M 1061.27 688.97
  Q 1060.88 688.97 1060.55 688.70
  C 1052.71 682.33 1043.54 677.33 1034.52 672.75
  Q 1032.35 671.65 1021.71 667.77
  C 1002.10 660.64 981.31 658.30 960.58 660.54
  Q 955.31 661.11 947.48 662.93
  Q 941.01 664.44 934.51 666.03"
/>
<path stroke="#80755e" stroke-opacity="0.996" vector-effect="non-scaling-stroke" d="
  M 1061.27 688.97
  Q 1061.42 689.58 1062.22 689.76"
/>
<path stroke="#80755e" stroke-opacity="0.996" vector-effect="non-scaling-stroke" d="
  M 1062.22 689.76
  Q 1062.97 690.91 1064.31 691.54"
/>
<path stroke="#80755e" stroke-opacity="0.996" vector-effect="non-scaling-stroke" d="
  M 1064.44 691.74
  L 1076.26 703.29"
/>
<path stroke="#80755e" stroke-opacity="0.996" vector-effect="non-scaling-stroke" d="
  M 1076.26 703.29
  Q 1076.34 703.64 1076.73 703.77"
/>
<path stroke="#80755e" stroke-opacity="0.996" vector-effect="non-scaling-stroke" d="
  M 1076.73 703.77
  Q 1076.84 704.15 1077.21 704.29"
/>
<path stroke="#80755e" stroke-opacity="0.996" vector-effect="non-scaling-stroke" d="
  M 1077.21 704.29
  Q 1077.35 704.65 1077.70 704.80"
/>
<path stroke="#80755e" stroke-opacity="0.996" vector-effect="non-scaling-stroke" d="
  M 1077.70 704.80
  Q 1077.84 705.16 1078.19 705.31"
/>
<path stroke="#80755e" stroke-opacity="0.996" vector-effect="non-scaling-stroke" d="
  M 1078.19 705.31
  Q 1078.36 705.60 1078.67 705.82"
/>
<path stroke="#80755e" stroke-opacity="0.996" vector-effect="non-scaling-stroke" d="
  M 1084.29 712.28
  Q 1084.55 713.03 1085.24 713.51"
/>
<path stroke="#80755e" stroke-opacity="0.996" vector-effect="non-scaling-stroke" d="
  M 1085.24 713.51
  Q 1085.34 713.98 1085.75 714.22"
/>
<path stroke="#80755e" stroke-opacity="0.996" vector-effect="non-scaling-stroke" d="
  M 1085.75 714.22
  Q 1085.87 714.73 1086.25 714.96"
/>
<path stroke="#80755e" stroke-opacity="0.996" vector-effect="non-scaling-stroke" d="
  M 1086.25 714.96
  Q 1086.64 716.09 1087.50 716.80"
/>
<path stroke="#80755e" stroke-opacity="0.996" vector-effect="non-scaling-stroke" d="
  M 1112.40 783.96
  Q 1112.30 784.49 1112.41 785.04"
/>
<path stroke="#80755e" stroke-opacity="0.996" vector-effect="non-scaling-stroke" d="
  M 1112.61 788.54
  L 1112.64 791.04"
/>
<path stroke="#80755e" stroke-opacity="0.996" vector-effect="non-scaling-stroke" d="
  M 1112.65 791.29
  Q 1112.57 791.66 1112.69 791.99"
/>
<path stroke="#80755e" stroke-opacity="0.996" vector-effect="non-scaling-stroke" d="
  M 883.08 790.27
  A 8.36 0.08 -85.2 0 1 882.98 791.44"
/>
<path stroke="#80755e" stroke-opacity="0.996" vector-effect="non-scaling-stroke" d="
  M 883.00 805.49
  A 8.94 0.90 84.3 0 0 883.11 806.74"
/>
<path stroke="#80755e" stroke-opacity="0.996" vector-effect="non-scaling-stroke" d="
  M 886.09 822.77
  Q 886.28 823.42 886.47 824.07"
/>
<path stroke="#80755e" stroke-opacity="0.996" vector-effect="non-scaling-stroke" d="
  M 886.47 824.07
  A 4.90 0.29 73.6 0 1 886.67 824.72"
/>
<path stroke="#80755e" stroke-opacity="0.996" vector-effect="non-scaling-stroke" d="
  M 889.70 833.10
  A 30.39 8.91 66.0 0 0 891.46 837.02"
/>
<path stroke="#80755e" stroke-opacity="0.996" vector-effect="non-scaling-stroke" d="
  M 891.46 837.02
  A 35.87 13.83 63.3 0 0 893.78 841.53"
/>
<path stroke="#80755e" stroke-opacity="0.996" vector-effect="non-scaling-stroke" d="
  M 893.78 841.53
  Q 894.05 842.02 894.32 842.51"
/>
<path stroke="#80755e" stroke-opacity="0.996" vector-effect="non-scaling-stroke" d="
  M 895.82 845.05
  Q 896.04 845.41 896.26 845.77"
/>
<path stroke="#80755e" stroke-opacity="0.996" vector-effect="non-scaling-stroke" d="
  M 896.74 846.53
  A 92.55 90.84 -29.7 0 0 929.57 877.11
  A 11.05 0.88 28.1 0 0 930.95 877.84"
/>
<path stroke="#80755e" stroke-opacity="0.996" vector-effect="non-scaling-stroke" d="
  M 930.95 877.84
  A 39.13 16.94 25.3 0 0 935.93 880.25"
/>
<path stroke="#80755e" stroke-opacity="0.996" vector-effect="non-scaling-stroke" d="
  M 936.58 880.53
  A 91.96 89.70 -29.0 0 0 950.14 885.22"
/>
<path stroke="#80755e" stroke-opacity="0.996" vector-effect="non-scaling-stroke" d="
  M 950.14 885.22
  Q 950.64 885.35 951.14 885.48"
/>
<path stroke="#80755e" stroke-opacity="0.996" vector-effect="non-scaling-stroke" d="
  M 951.14 885.48
  A 31.37 10.38 12.0 0 0 955.47 886.44"
/>
<path stroke="#80755e" stroke-opacity="0.996" vector-effect="non-scaling-stroke" d="
  M 955.68 886.48
  A 5.47 1.16 9.5 0 0 956.43 886.63"
/>
<path stroke="#80755e" stroke-opacity="0.996" vector-effect="non-scaling-stroke" d="
  M 957.18 886.76
  A 5.45 1.14 7.9 0 0 957.93 886.89"
/>
<path stroke="#80755e" stroke-opacity="0.996" vector-effect="non-scaling-stroke" d="
  M 958.70 887.02
  A 5.29 1.12 6.5 0 0 959.43 887.13"
/>
<path stroke="#80755e" stroke-opacity="0.996" vector-effect="non-scaling-stroke" d="
  M 960.26 887.26
  A 6.70 0.13 7.2 0 0 961.19 887.38"
/>
</g>
<g fill="#ffe9bb">
<path d="
  M 982.72 0.00
  Q 983.18 0.32 983.95 0.22
  Q 984.26 3.41 984.26 6.50
  Q 984.39 239.88 984.41 473.25
  Q 984.41 478.58 985.00 483.80
  L 984.68 492.23
  Q 983.87 509.92 984.68 527.66
  L 984.80 551.33
  L 984.78 561.68
  L 984.39 586.46
  L 984.33 589.33
  A 0.96 0.95 -72.1 0 0 984.73 590.13
  Q 985.26 590.50 986.02 590.52
  Q 991.00 590.56 994.69 592.44
  Q 994.95 592.91 995.46 593.01
  Q 995.79 593.71 996.48 593.79
  L 996.99 594.11
  Q 996.77 594.69 997.63 594.71
  Q 1002.85 601.13 1002.89 609.06
  Q 1002.95 623.30 1002.90 637.54
  L 1002.81 657.97
  A 1.17 1.16 -84.6 0 1 1001.44 659.11
  Q 993.86 657.76 986.19 656.85
  Q 979.88 656.10 970.80 656.69
  Q 962.54 657.23 954.19 658.01
  Q 953.94 635.06 954.07 613.93
  Q 954.11 606.80 955.77 601.52
  C 957.86 594.85 963.18 591.83 969.66 590.21
  Q 970.51 590.38 971.58 590.20
  A 0.62 0.61 -3.5 0 0 972.10 589.62
  L 972.23 586.70
  L 971.73 526.01
  L 971.66 520.57
  L 971.83 515.96
  C 972.24 504.61 971.97 490.80 971.97 481.94
  Q 972.08 261.51 972.06 41.07
  Q 972.06 32.20 972.33 20.93
  Q 972.57 10.84 972.70 0.76
  L 975.38 0.00
  L 982.72 0.00
  Z"
/>
<path d="
  M 59.29 602.72
  C 59.43 605.63 59.85 608.65 59.85 611.44
  Q 59.99 727.54 59.78 817.22
  Q 59.74 834.52 60.13 837.25
  Q 61.69 848.13 66.71 856.02
  Q 69.86 860.97 76.92 864.91
  Q 78.31 866.17 80.27 866.56
  Q 80.44 867.17 81.48 867.01
  Q 81.58 867.06 81.69 867.12
  Q 81.60 867.71 82.53 867.49
  L 89.04 869.58
  L 89.71 869.68
  L 97.03 870.63
  L 98.71 870.74
  L 210.30 870.83
  Q 213.24 871.11 215.94 870.36
  Q 218.71 871.68 219.73 873.31
  Q 219.01 896.13 219.45 918.63
  Q 219.50 921.02 218.55 923.55
  Q 218.16 923.52 217.96 923.86
  L 200.78 924.27
  Q 178.53 923.77 156.25 924.55
  C 150.95 924.73 145.10 924.30 140.28 924.43
  Q 124.82 924.85 102.26 924.60
  Q 88.71 924.45 73.51 922.02
  Q 60.37 919.92 48.86 913.92
  C 42.38 910.55 34.33 905.44 28.82 900.33
  C 13.09 885.76 4.04 864.94 2.23 843.69
  Q 1.02 829.40 1.11 800.25
  Q 1.39 707.33 1.36 614.41
  L 1.60 606.01
  L 2.33 603.67
  Q 3.43 603.09 4.25 603.10
  Q 31.73 603.50 59.29 602.72
  Z"
/>
<path d="
  M 1061.27 688.97
  Q 1061.42 689.58 1062.22 689.76
  Q 1062.97 690.91 1064.31 691.54
  Q 1064.36 691.69 1064.44 691.74
  L 1076.26 703.29
  Q 1076.34 703.64 1076.73 703.77
  Q 1076.84 704.15 1077.21 704.29
  Q 1077.35 704.65 1077.70 704.80
  Q 1077.84 705.16 1078.19 705.31
  Q 1078.36 705.60 1078.67 705.82
  L 1084.29 712.28
  Q 1084.55 713.03 1085.24 713.51
  Q 1085.34 713.98 1085.75 714.22
  Q 1085.87 714.73 1086.25 714.96
  Q 1086.64 716.09 1087.50 716.80
  Q 1095.02 728.35 1096.93 732.06
  Q 1109.53 756.55 1112.40 783.96
  Q 1112.30 784.49 1112.41 785.04
  L 1112.61 788.54
  L 1112.64 791.04
  Q 1112.65 791.16 1112.65 791.29
  Q 1112.57 791.66 1112.69 791.99
  Q 1112.67 804.23 1111.46 812.50
  Q 1110.81 816.90 1108.96 825.86
  C 1102.42 857.58 1082.98 885.89 1057.71 904.99
  Q 1055.64 906.55 1046.70 912.30
  Q 1039.92 916.67 1035.28 918.90
  C 1019.48 926.51 1002.82 931.62 985.77 932.77
  Q 977.82 933.30 974.72 933.35
  Q 932.69 934.03 897.82 910.96
  Q 854.84 882.52 840.64 830.87
  Q 839.29 825.96 837.92 810.24
  Q 836.23 790.97 839.74 771.72
  C 841.05 764.51 844.64 754.87 846.19 750.00
  C 847.51 745.84 849.74 741.99 851.39 737.92
  Q 852.01 736.36 853.87 733.27
  C 859.82 723.37 862.22 718.10 867.56 712.49
  C 870.55 709.35 873.01 705.93 876.06 702.73
  C 892.51 685.45 912.09 673.52 934.51 666.03
  Q 941.01 664.44 947.48 662.93
  Q 955.31 661.11 960.58 660.54
  C 981.31 658.30 1002.10 660.64 1021.71 667.77
  Q 1032.35 671.65 1034.52 672.75
  C 1043.54 677.33 1052.71 682.33 1060.55 688.70
  Q 1060.88 688.97 1061.27 688.97
  Z
  M 883.08 790.27
  A 8.36 0.08 -85.2 0 1 882.98 791.44
  A 91.80 90.70 -20.2 0 0 883.00 805.49
  A 8.94 0.90 84.3 0 0 883.11 806.74
  A 92.46 90.73 -31.3 0 0 886.09 822.77
  Q 886.28 823.42 886.47 824.07
  A 4.90 0.29 73.6 0 1 886.67 824.72
  A 63.03 43.87 71.5 0 0 889.70 833.10
  A 30.39 8.91 66.0 0 0 891.46 837.02
  A 35.87 13.83 63.3 0 0 893.78 841.53
  Q 894.05 842.02 894.32 842.51
  A 20.86 4.45 59.2 0 0 895.82 845.05
  Q 896.04 845.41 896.26 845.77
  Q 896.50 846.15 896.74 846.53
  A 92.55 90.84 -29.7 0 0 929.57 877.11
  A 11.05 0.88 28.1 0 0 930.95 877.84
  A 39.13 16.94 25.3 0 0 935.93 880.25
  A 5.09 0.39 22.5 0 0 936.58 880.53
  A 91.96 89.70 -29.0 0 0 950.14 885.22
  Q 950.64 885.35 951.14 885.48
  A 31.37 10.38 12.0 0 0 955.47 886.44
  A 1.80 0.16 7.5 0 0 955.68 886.48
  A 5.47 1.16 9.5 0 0 956.43 886.63
  A 5.45 1.14 7.9 0 0 957.18 886.76
  A 5.45 1.14 7.9 0 0 957.93 886.89
  A 5.58 1.14 7.8 0 0 958.70 887.02
  A 5.29 1.12 6.5 0 0 959.43 887.13
  A 6.05 0.82 10.4 0 0 960.26 887.26
  A 6.70 0.13 7.2 0 0 961.19 887.38
  A 87.37 82.94 -6.1 0 0 973.50 888.19
  A 92.59 90.92 -30.3 0 0 1001.92 883.72
  A 92.47 90.75 -33.4 0 0 1026.59 871.61
  A 92.63 90.85 -27.9 0 0 1049.18 849.67
  A 92.39 90.87 -31.8 0 0 1063.11 821.74
  A 91.75 89.84 -30.9 0 0 1066.28 806.92
  A 92.70 91.14 -29.1 0 0 1066.36 784.55
  A 92.43 90.74 -30.7 0 0 1053.24 747.58
  A 92.58 90.89 -30.5 0 0 1012.38 712.85
  A 92.54 90.55 -29.8 0 0 996.88 707.83
  A 60.56 39.52 10.1 0 0 988.45 706.32
  A 92.55 90.88 -30.3 0 0 928.00 718.98
  A 93.33 91.55 -26.9 0 0 917.12 726.62
  A 66.41 46.55 -40.7 0 0 910.14 732.90
  A 92.56 90.84 -30.2 0 0 886.24 773.26
  A 92.79 91.06 -30.6 0 0 883.08 790.27
  Z"
/>
<path d="
  M 619.05 681.31
  Q 619.31 681.47 619.70 681.51
  Q 620.58 681.97 621.47 682.03
  L 626.24 683.54
  Q 627.65 684.30 629.23 684.54
  L 629.75 684.80
  Q 630.16 685.17 630.72 685.30
  L 641.27 690.25
  Q 641.33 690.89 642.02 690.79
  L 642.46 691.07
  Q 642.79 691.41 643.25 691.52
  Q 651.16 696.43 657.76 702.97
  L 660.38 706.06
  A 0.57 0.56 46.0 0 0 661.23 706.08
  L 664.34 702.72
  Q 668.09 699.56 672.16 696.67
  Q 700.35 676.59 735.30 678.35
  L 735.96 678.39
  L 738.27 678.58
  L 739.96 678.70
  L 740.71 678.85
  Q 741.39 679.02 742.05 678.95
  Q 744.82 679.93 747.73 679.98
  L 757.46 682.32
  Q 757.59 682.33 757.72 682.33
  L 758.45 682.50
  L 769.69 686.88
  Q 770.50 687.90 771.55 687.71
  L 773.21 688.60
  Q 773.64 689.14 774.44 689.26
  Q 774.93 689.97 775.77 689.98
  L 776.46 690.37
  Q 776.55 690.66 776.95 690.72
  Q 792.41 700.07 801.09 712.17
  Q 816.93 734.23 818.28 762.00
  Q 818.83 773.23 818.85 782.26
  Q 818.99 837.79 818.67 890.76
  Q 818.62 899.34 818.93 916.00
  Q 818.99 919.21 818.37 922.46
  A 1.92 1.91 -84.7 0 1 816.49 924.03
  L 772.26 924.21
  L 766.75 924.16
  Q 764.71 923.48 763.52 921.80
  A 0.66 0.65 -63.0 0 1 763.40 921.42
  Q 763.23 845.36 763.33 777.76
  Q 763.35 765.63 761.10 755.97
  C 759.55 749.29 755.01 743.54 750.37 738.92
  Q 747.60 736.16 742.62 734.14
  Q 721.57 725.63 702.65 737.66
  Q 689.02 746.32 685.37 762.55
  L 685.30 763.46
  L 684.41 768.21
  Q 684.39 768.64 684.24 768.98
  C 683.90 772.96 683.58 777.04 683.59 781.02
  Q 683.82 838.15 683.56 916.00
  Q 683.56 917.32 683.25 920.42
  A 1.67 1.66 -22.6 0 1 682.88 921.31
  Q 680.59 924.12 678.68 924.04
  Q 656.03 923.02 631.30 924.03
  Q 630.44 924.06 629.19 922.81
  C 628.09 921.71 628.21 919.15 628.22 917.76
  Q 628.47 810.61 628.28 769.25
  C 628.22 756.00 622.25 741.90 610.38 735.02
  Q 601.61 729.93 590.08 730.29
  C 574.37 730.78 558.98 740.40 552.92 755.39
  Q 550.25 762.03 549.03 768.79
  Q 548.41 772.21 548.43 782.74
  Q 548.53 846.64 548.39 910.54
  L 548.42 912.96
  Q 548.83 917.53 547.92 921.38
  A 3.21 3.20 7.1 0 1 544.75 923.85
  C 523.86 923.52 515.21 923.20 497.75 924.20
  A 2.70 2.64 -34.3 0 1 496.51 923.98
  Q 494.82 923.23 493.33 921.60
  A 1.22 1.19 24.9 0 1 493.01 920.76
  Q 493.74 866.65 492.60 812.54
  L 492.62 810.46
  L 492.61 804.27
  L 492.61 796.47
  C 492.50 784.14 491.76 773.02 495.18 759.92
  Q 497.50 751.00 498.10 749.12
  Q 500.90 740.20 507.21 729.21
  Q 507.24 729.15 513.53 719.64
  Q 516.35 715.37 518.98 712.83
  C 521.70 710.20 523.98 706.88 526.97 704.34
  Q 538.70 694.37 548.00 689.49
  Q 581.19 672.10 619.05 681.31
  Z"
/>
<path d="
  M 270.02 682.76
  L 277.30 682.75
  C 282.37 683.93 280.40 691.66 280.40 695.32
  Q 280.40 754.09 280.44 799.49
  C 280.44 804.75 280.91 810.19 281.26 815.53
  L 281.48 817.50
  L 281.66 818.29
  L 282.31 823.04
  Q 282.23 823.90 282.54 824.20
  Q 284.58 837.20 292.05 847.88
  Q 291.87 848.76 292.49 848.77
  Q 292.61 849.22 292.98 849.49
  C 297.36 856.17 302.16 860.02 309.00 864.78
  Q 309.24 865.12 309.72 865.26
  Q 310.02 865.61 310.50 865.75
  Q 310.80 866.11 311.23 866.22
  L 320.29 870.80
  L 320.94 871.02
  Q 322.32 871.79 323.96 871.96
  Q 324.09 872.02 324.22 872.07
  L 324.96 872.20
  L 326.21 872.57
  L 326.96 872.70
  L 330.46 873.56
  Q 331.21 874.04 332.22 873.97
  L 335.79 874.57
  L 336.46 874.71
  L 343.98 875.59
  L 350.75 875.64
  Q 351.73 875.36 352.70 875.50
  Q 353.29 875.57 353.80 875.34
  L 356.02 875.27
  Q 356.88 875.47 357.54 875.05
  L 358.21 875.02
  Q 358.92 875.12 359.54 874.80
  Q 359.67 874.75 359.79 874.70
  Q 360.40 874.75 360.72 874.56
  Q 387.04 870.62 402.49 849.50
  Q 409.96 839.29 412.33 826.86
  Q 414.39 816.03 414.36 805.00
  Q 414.19 747.36 414.15 689.73
  L 414.11 688.21
  Q 414.11 688.08 414.10 687.96
  L 414.15 686.75
  Q 414.66 683.48 418.53 682.74
  Q 444.17 683.92 469.67 682.77
  L 471.83 684.97
  L 471.83 812.25
  Q 471.98 812.78 471.93 813.48
  L 471.82 816.97
  L 471.66 818.79
  L 471.55 819.47
  Q 471.01 823.96 470.41 828.50
  Q 468.52 842.71 463.17 855.19
  Q 462.05 857.80 458.84 864.48
  C 448.19 886.65 429.75 904.41 408.12 915.39
  Q 402.95 918.01 394.94 921.20
  Q 387.24 924.27 381.19 925.38
  C 369.47 927.54 361.96 928.96 351.19 928.98
  Q 336.17 928.99 319.78 926.15
  Q 304.45 923.49 288.56 915.90
  Q 280.99 912.28 277.77 909.78
  Q 271.26 904.73 268.71 902.82
  C 239.82 881.20 224.54 845.51 223.82 809.70
  L 223.85 806.04
  L 223.85 803.46
  L 223.84 800.00
  L 223.85 791.50
  L 223.84 790.00
  L 223.86 787.75
  L 223.86 756.76
  L 223.85 723.63
  L 223.94 685.33
  L 225.59 683.14
  Q 245.79 683.04 265.99 683.24
  Q 267.00 683.25 268.56 682.82
  L 270.02 682.76
  Z"
/>
</g>
<g fill="#010100" fill-opacity="0.992">
<path d="
  M 985.00 483.80
  Q 984.41 478.58 984.41 473.25
  Q 984.39 239.88 984.26 6.50
  Q 984.26 3.41 983.95 0.22
  Q 984.80 1.83 984.90 3.49
  Q 985.19 8.54 985.18 19.50
  Q 985.13 76.25 985.15 133.00
  Q 985.22 308.39 985.00 483.80
  Z"
/>
<path d="
  M 972.70 0.76
  Q 972.57 10.84 972.33 20.93
  Q 972.06 32.20 972.06 41.07
  Q 972.08 261.51 971.97 481.94
  C 971.97 490.80 972.24 504.61 971.83 515.96
  C 971.87 485.99 971.43 453.01 971.44 426.02
  Q 971.44 243.01 971.51 60.00
  Q 971.52 25.16 972.70 0.76
  Z"
/>
<path d="
  M 984.68 492.23
  L 984.68 527.66
  Q 983.87 509.92 984.68 492.23
  Z"
/>
<path d="
  M 971.66 520.57
  L 971.73 526.01
  L 971.66 520.57
  Z"
/>
<path d="
  M 984.78 561.68
  L 984.80 551.33
  L 984.78 561.68
  Z"
/>
<path d="
  M 984.39 586.46
  Q 985.05 589.37 986.02 590.52
  Q 985.26 590.50 984.73 590.13
  A 0.96 0.95 -72.1 0 1 984.33 589.33
  L 984.39 586.46
  Z"
/>
<path d="
  M 972.23 586.70
  L 972.10 589.62
  A 0.62 0.61 -3.5 0 1 971.58 590.20
  Q 970.51 590.38 969.66 590.21
  L 972.23 586.70
  Z"
/>
<path d="
  M 995.46 593.01
  Q 994.95 592.91 994.69 592.44
  Q 995.24 592.65 995.46 593.01
  Z"
/>
<path d="
  M 996.48 593.79
  Q 995.79 593.71 995.46 593.01
  Q 996.13 593.19 996.48 593.79
  Z"
/>
<path d="
  M 997.63 594.71
  Q 996.77 594.69 996.99 594.11
  Q 997.22 594.12 997.63 594.71
  Z"
/>
<path d="
  M 59.29 602.72
  Q 31.73 603.50 4.25 603.10
  Q 3.43 603.09 2.33 603.67
  C 2.33 602.91 2.69 602.26 3.52 602.14
  C 6.20 601.74 8.67 602.35 11.51 602.34
  Q 35.31 602.22 59.29 602.72
  Z"
/>
<path d="
  M 1.60 606.01
  L 1.36 614.41
  Q 0.54 610.16 1.60 606.01
  Z"
/>
<path d="
  M 1002.90 637.54
  Q 1002.75 640.80 1003.00 644.01
  Q 1003.51 650.47 1003.51 650.49
  Q 1003.27 653.34 1003.67 657.58
  Q 1003.89 659.99 1006.16 661.71
  A 2.74 2.62 71.2 0 0 1006.99 662.14
  Q 1025.44 668.06 1033.84 671.97
  C 1043.42 676.42 1053.18 681.92 1061.27 688.97
  Q 1060.88 688.97 1060.55 688.70
  C 1052.71 682.33 1043.54 677.33 1034.52 672.75
  Q 1032.35 671.65 1021.71 667.77
  C 1002.10 660.64 981.31 658.30 960.58 660.54
  Q 955.31 661.11 947.48 662.93
  Q 941.01 664.44 934.51 666.03
  Q 940.94 663.79 947.37 661.87
  Q 950.09 661.06 954.19 658.01
  Q 962.54 657.23 970.80 656.69
  Q 979.88 656.10 986.19 656.85
  Q 993.86 657.76 1001.44 659.11
  A 1.17 1.16 -84.6 0 0 1002.81 657.97
  L 1002.90 637.54
  Z"
/>
<path d="
  M 735.96 678.39
  L 735.30 678.35
  L 735.96 678.39
  Z"
/>
<path d="
  M 739.96 678.70
  L 738.27 678.58
  L 739.96 678.70
  Z"
/>
<path d="
  M 742.05 678.95
  Q 741.39 679.02 740.71 678.85
  L 742.05 678.95
  Z"
/>
<path d="
  M 747.73 679.98
  Q 744.82 679.93 742.05 678.95
  L 747.73 679.98
  Z"
/>
<path d="
  M 757.46 682.32
  L 747.73 679.98
  L 757.46 682.32
  Z"
/>
<path d="
  M 619.70 681.51
  Q 619.31 681.47 619.05 681.31
  Q 619.41 681.32 619.70 681.51
  Z"
/>
<path d="
  M 621.47 682.03
  Q 620.58 681.97 619.70 681.51
  Q 620.66 681.54 621.47 682.03
  Z"
/>
<path d="
  M 268.56 682.82
  Q 267.00 683.25 265.99 683.24
  Q 245.79 683.04 225.59 683.14
  Q 226.15 682.13 227.00 682.17
  C 229.77 682.32 232.54 682.71 235.34 682.58
  Q 244.04 682.17 255.43 682.70
  Q 261.96 683.00 268.56 682.82
  Z"
/>
<path d="
  M 277.30 682.75
  L 270.02 682.76
  Q 273.70 681.80 277.30 682.75
  Z"
/>
<path d="
  M 469.67 682.77
  Q 444.17 683.92 418.53 682.74
  L 469.67 682.77
  Z"
/>
<path d="
  M 758.45 682.50
  L 757.72 682.33
  Q 758.18 682.30 758.45 682.50
  Z"
/>
<path d="
  M 629.23 684.54
  Q 627.65 684.30 626.24 683.54
  Q 627.88 683.70 629.23 684.54
  Z"
/>
<path d="
  M 630.72 685.30
  Q 630.16 685.17 629.75 684.80
  Q 630.51 684.83 630.72 685.30
  Z"
/>
<path d="
  M 471.83 812.25
  L 471.83 684.97
  Q 472.52 687.64 472.52 693.25
  Q 472.60 777.95 472.52 809.25
  Q 472.52 810.69 471.83 812.25
  Z"
/>
<path d="
  M 223.94 685.33
  L 223.85 723.63
  L 223.94 685.33
  Z"
/>
<path d="
  M 641.27 690.25
  L 630.72 685.30
  Q 636.46 686.84 641.27 690.25
  Z"
/>
<path d="
  M 414.15 686.75
  L 414.10 687.96
  L 414.15 686.75
  Z"
/>
<path d="
  M 771.55 687.71
  Q 770.50 687.90 769.69 686.88
  Q 770.69 687.04 771.55 687.71
  Z"
/>
<path d="
  M 414.15 689.73
  L 414.11 688.21
  L 414.15 689.73
  Z"
/>
<path d="
  M 774.44 689.26
  Q 773.64 689.14 773.21 688.60
  Q 774.05 688.65 774.44 689.26
  Z"
/>
<path d="
  M 1062.22 689.76
  Q 1061.42 689.58 1061.27 688.97
  Q 1061.97 689.22 1062.22 689.76
  Z"
/>
<path d="
  M 775.77 689.98
  Q 774.93 689.97 774.44 689.26
  Q 775.23 689.40 775.77 689.98
  Z"
/>
<path d="
  M 1064.31 691.54
  Q 1062.97 690.91 1062.22 689.76
  Q 1063.56 690.35 1064.31 691.54
  Z"
/>
<path d="
  M 642.02 690.79
  Q 641.33 690.89 641.27 690.25
  Q 641.74 690.40 642.02 690.79
  Z"
/>
<path d="
  M 776.95 690.72
  Q 776.55 690.66 776.46 690.37
  Q 776.83 690.48 776.95 690.72
  Z"
/>
<path d="
  M 643.25 691.52
  Q 642.79 691.41 642.46 691.07
  Q 642.97 691.10 643.25 691.52
  Z"
/>
<path d="
  M 1076.26 703.29
  L 1064.44 691.74
  Q 1071.07 696.79 1076.26 703.29
  Z"
/>
<path d="
  M 664.34 702.72
  L 661.23 706.08
  A 0.57 0.56 46.0 0 1 660.38 706.06
  L 657.76 702.97
  Q 658.72 703.37 659.17 703.84
  A 1.97 1.96 51.5 0 0 661.66 704.13
  Q 662.91 703.31 664.34 702.72
  Z"
/>
<path d="
  M 1076.73 703.77
  Q 1076.34 703.64 1076.26 703.29
  Q 1076.60 703.33 1076.73 703.77
  Z"
/>
<path d="
  M 1077.21 704.29
  Q 1076.84 704.15 1076.73 703.77
  Q 1077.09 703.92 1077.21 704.29
  Z"
/>
<path d="
  M 1077.70 704.80
  Q 1077.35 704.65 1077.21 704.29
  Q 1077.55 704.46 1077.70 704.80
  Z"
/>
<path d="
  M 1078.19 705.31
  Q 1077.84 705.16 1077.70 704.80
  Q 1078.03 704.97 1078.19 705.31
  Z"
/>
<path d="
  M 1078.67 705.82
  Q 1078.36 705.60 1078.19 705.31
  Q 1078.58 705.49 1078.67 705.82
  Z"
/>
<path d="
  M 1085.24 713.51
  Q 1084.55 713.03 1084.29 712.28
  Q 1084.98 712.83 1085.24 713.51
  Z"
/>
<path d="
  M 1085.75 714.22
  Q 1085.34 713.98 1085.24 713.51
  Q 1085.63 713.76 1085.75 714.22
  Z"
/>
<path d="
  M 1086.25 714.96
  Q 1085.87 714.73 1085.75 714.22
  Q 1086.15 714.49 1086.25 714.96
  Z"
/>
<path d="
  M 1087.50 716.80
  Q 1086.64 716.09 1086.25 714.96
  Q 1087.16 715.70 1087.50 716.80
  Z"
/>
<path d="
  M 223.86 787.75
  L 223.86 756.76
  L 223.86 787.75
  Z"
/>
<path d="
  M 685.37 762.55
  Q 685.46 763.00 685.30 763.46
  L 685.37 762.55
  Z"
/>
<path d="
  M 684.41 768.21
  Q 684.47 768.78 684.24 768.98
  Q 684.39 768.64 684.41 768.21
  Z"
/>
<path d="
  M 1112.41 785.04
  Q 1112.30 784.49 1112.40 783.96
  L 1112.41 785.04
  Z"
/>
<path d="
  M 1112.64 791.04
  L 1112.61 788.54
  L 1112.64 791.04
  Z"
/>
<path d="
  M 223.85 791.50
  L 223.84 790.00
  L 223.85 791.50
  Z"
/>
<path d="
  M 883.08 790.27
  Q 883.37 790.85 882.98 791.44
  A 8.36 0.08 -85.2 0 0 883.08 790.27
  Z"
/>
<path d="
  M 1112.65 791.29
  L 1112.69 791.99
  Q 1112.57 791.66 1112.65 791.29
  Z"
/>
<path d="
  M 492.61 804.27
  L 492.61 796.47
  L 492.61 804.27
  Z"
/>
<path d="
  M 223.85 803.46
  L 223.84 800.00
  L 223.85 803.46
  Z"
/>
<path d="
  M 883.11 806.74
  A 8.94 0.90 84.3 0 1 883.00 805.49
  Q 883.38 806.09 883.11 806.74
  Z"
/>
<path d="
  M 223.82 809.70
  L 223.85 806.04
  L 223.82 809.70
  Z"
/>
<path d="
  M 492.60 812.54
  L 492.62 810.46
  L 492.60 812.54
  Z"
/>
<path d="
  M 471.93 813.48
  L 471.82 816.97
  L 471.93 813.48
  Z"
/>
<path d="
  M 281.48 817.50
  L 281.26 815.53
  Q 281.54 816.45 281.48 817.50
  Z"
/>
<path d="
  M 281.66 818.29
  L 281.48 817.50
  Q 281.67 817.84 281.66 818.29
  Z"
/>
<path d="
  M 471.66 818.79
  Q 471.68 819.17 471.55 819.47
  L 471.66 818.79
  Z"
/>
<path d="
  M 886.47 824.07
  Q 886.28 823.42 886.09 822.77
  Q 886.40 823.38 886.47 824.07
  Z"
/>
<path d="
  M 282.54 824.20
  Q 282.23 823.90 282.31 823.04
  L 282.54 824.20
  Z"
/>
<path d="
  M 886.67 824.72
  A 4.90 0.29 73.6 0 0 886.47 824.07
  Q 886.71 824.34 886.67 824.72
  Z"
/>
<path d="
  M 891.46 837.02
  A 30.39 8.91 66.0 0 1 889.70 833.10
  Q 890.96 834.94 891.46 837.02
  Z"
/>
<path d="
  M 893.78 841.53
  A 35.87 13.83 63.3 0 1 891.46 837.02
  L 893.78 841.53
  Z"
/>
<path d="
  M 894.32 842.51
  Q 894.05 842.02 893.78 841.53
  Q 894.17 841.82 894.32 842.51
  Z"
/>
<path d="
  M 896.26 845.77
  Q 896.04 845.41 895.82 845.05
  Q 896.14 845.28 896.26 845.77
  Z"
/>
<path d="
  M 930.95 877.84
  A 11.05 0.88 28.1 0 1 929.57 877.11
  A 92.55 90.84 -29.7 0 1 896.74 846.53
  Q 899.69 849.98 902.46 853.60
  Q 911.29 865.13 923.51 873.00
  Q 927.25 875.41 930.95 877.84
  Z"
/>
<path d="
  M 292.49 848.77
  Q 291.87 848.76 292.05 847.88
  Q 292.42 848.33 292.49 848.77
  Z"
/>
<path d="
  M 292.98 849.49
  Q 292.61 849.22 292.49 848.77
  Q 292.87 849.01 292.98 849.49
  Z"
/>
<path d="
  M 80.27 866.56
  Q 78.31 866.17 76.92 864.91
  Q 78.80 865.37 80.27 866.56
  Z"
/>
<path d="
  M 309.72 865.26
  Q 309.24 865.12 309.00 864.78
  Q 309.47 864.90 309.72 865.26
  Z"
/>
<path d="
  M 310.50 865.75
  Q 310.02 865.61 309.72 865.26
  Q 310.20 865.38 310.50 865.75
  Z"
/>
<path d="
  M 311.23 866.22
  Q 310.80 866.11 310.50 865.75
  Q 310.95 865.89 311.23 866.22
  Z"
/>
<path d="
  M 81.48 867.01
  Q 80.44 867.17 80.27 866.56
  Q 80.89 866.50 81.48 867.01
  Z"
/>
<path d="
  M 82.53 867.49
  Q 81.60 867.71 81.69 867.12
  Q 82.21 867.15 82.53 867.49
  Z"
/>
<path d="
  M 89.71 869.68
  L 89.04 869.58
  L 89.71 869.68
  Z"
/>
<path d="
  M 215.94 870.36
  Q 213.24 871.11 210.30 870.83
  Q 213.28 869.90 215.94 870.36
  Z"
/>
<path d="
  M 98.71 870.74
  L 97.03 870.63
  Q 97.95 870.52 98.71 870.74
  Z"
/>
<path d="
  M 320.94 871.02
  L 320.29 870.80
  Q 320.68 870.83 320.94 871.02
  Z"
/>
<path d="
  M 323.96 871.96
  Q 322.32 871.79 320.94 871.02
  L 323.96 871.96
  Z"
/>
<path d="
  M 324.96 872.20
  L 324.22 872.07
  Q 324.62 872.06 324.96 872.20
  Z"
/>
<path d="
  M 326.96 872.70
  L 326.21 872.57
  Q 326.61 872.57 326.96 872.70
  Z"
/>
<path d="
  M 219.73 873.31
  Q 220.26 887.32 220.23 901.22
  C 220.23 905.76 221.03 914.52 220.13 921.28
  Q 219.87 923.20 218.55 923.55
  Q 219.50 921.02 219.45 918.63
  Q 219.01 896.13 219.73 873.31
  Z"
/>
<path d="
  M 332.22 873.97
  Q 331.21 874.04 330.46 873.56
  Q 331.38 873.55 332.22 873.97
  Z"
/>
<path d="
  M 336.46 874.71
  L 335.79 874.57
  L 336.46 874.71
  Z"
/>
<path d="
  M 360.72 874.56
  Q 360.40 874.75 359.79 874.70
  L 360.72 874.56
  Z"
/>
<path d="
  M 359.54 874.80
  Q 358.92 875.12 358.21 875.02
  Q 358.55 874.63 359.54 874.80
  Z"
/>
<path d="
  M 357.54 875.05
  Q 356.88 875.47 356.02 875.27
  Q 356.65 874.96 357.54 875.05
  Z"
/>
<path d="
  M 353.80 875.34
  Q 353.29 875.57 352.70 875.50
  Q 352.79 875.20 353.80 875.34
  Z"
/>
<path d="
  M 350.75 875.64
  L 343.98 875.59
  L 350.75 875.64
  Z"
/>
<path d="
  M 935.93 880.25
  A 39.13 16.94 25.3 0 1 930.95 877.84
  Q 933.64 878.51 935.93 880.25
  Z"
/>
<path d="
  M 950.14 885.22
  A 91.96 89.70 -29.0 0 1 936.58 880.53
  L 950.14 885.22
  Z"
/>
<path d="
  M 951.14 885.48
  Q 950.64 885.35 950.14 885.22
  Q 950.85 884.98 951.14 885.48
  Z"
/>
<path d="
  M 955.47 886.44
  A 31.37 10.38 12.0 0 1 951.14 885.48
  Q 953.39 885.40 955.47 886.44
  Z"
/>
<path d="
  M 956.43 886.63
  A 5.47 1.16 9.5 0 1 955.68 886.48
  Q 956.12 886.31 956.43 886.63
  Z"
/>
<path d="
  M 957.93 886.89
  A 5.45 1.14 7.9 0 1 957.18 886.76
  Q 957.61 886.58 957.93 886.89
  Z"
/>
<path d="
  M 959.43 887.13
  A 5.29 1.12 6.5 0 1 958.70 887.02
  Q 959.11 886.84 959.43 887.13
  Z"
/>
<path d="
  M 961.19 887.38
  A 6.70 0.13 7.2 0 1 960.26 887.26
  Q 960.75 887.08 961.19 887.38
  Z"
/>
<path d="
  M 548.39 910.54
  L 548.42 912.96
  L 548.39 910.54
  Z"
/>
<path d="
  M 217.96 923.86
  L 215.73 925.01
  A 1.44 1.44 0.0 0 1 215.01 925.16
  L 200.78 924.27
  L 217.96 923.86
  Z"
/>
<path d="
  M 772.26 924.21
  Q 769.48 925.70 766.75 924.16
  L 772.26 924.21
  Z"
/>
</g>
</svg>
